# xmcd CD database file
#
# Track frame offsets:
#	150
#	14197
#	27860
#	46525
#	56545
#	78832
#	93235
#	109595
#	126057
#	146260
#	158072
#	180567
#	200010
#	220712
#	232870
#
# Disc length: 3433 seconds
#
# Revision: 0
# Processed by: cddbd v1.5.1PL2 Copyright (c) Steve Scherf et al.
# Submitted via: CDex 1.51
#
DISCID=b50d670f
DTITLE=Bernd Lhotzky and David Paquette - Just You, Just Me
DYEAR=1996
DGENRE=Jazz
TTITLE0=Just You, Just Me
TTITLE1=Please Don't Talk About Me When I'm Gone
TTITLE2=Chloe
TTITLE3=Who's Sorry Now
TTITLE4=A Porter's Lovesong To A Chambermaid
TTITLE5=Everything Happens To Me
TTITLE6=You Can Depend On Me
TTITLE7=Cottage For Sale
TTITLE8=I Surrender, Dear
TTITLE9=Them Their Eyes
TTITLE10=Breeze
TTITLE11=Nobody Knows You When You're Down And Out
TTITLE12=Memories Of You
TTITLE13=Ja-Da
TTITLE14=I'm Laughin' On The Outside
EXTD=YEAR: 1996
EXTT0=
EXTT1=
EXTT2=
EXTT3=
EXTT4=
EXTT5=
EXTT6=
EXTT7=
EXTT8=
EXTT9=
EXTT10=
EXTT11=
EXTT12=
EXTT13=
EXTT14=
PLAYORDER=
